HIERARCHY
ROOT Hips
{
	OFFSET 0.000000 0.000000 0.000000
	CHANNELS 6 Xposition Yposition Zposition Xrotation Yrotation Zrotation
	JOINT LeftUpLeg_virtual
	{
		OFFSET 0.000000 0.000000 0.000000
		CHANNELS 3 Xrotation Yrotation Zrotation
		JOINT LeftUpLeg
		{
			OFFSET 11.394100 -6.187798 -0.413800
			CHANNELS 3 Xrotation Yrotation Zrotation
			JOINT LeftLeg
			{
				OFFSET 0.430247 -32.302673 3.732800
				CHANNELS 3 Xrotation Yrotation Zrotation
				JOINT LeftFoot
				{
					OFFSET -0.430247 -48.264931 -6.423300
					CHANNELS 3 Xrotation Yrotation Zrotation
					JOINT LeftToeBase
					{
						OFFSET 4.230900 -16.068199 23.438400
						CHANNELS 3 Xrotation Yrotation Zrotation
						JOINT LeftToe_End
						{
							OFFSET 4.510700 0.695400 19.974600
							CHANNELS 3 Xrotation Yrotation Zrotation
							End Site
							{
								OFFSET 0 0 0
							}
						}
					}
				}
			}
		}
	}
	JOINT RightUpLeg_virtual
	{
		OFFSET 0.000000 0.000000 0.000000
		CHANNELS 3 Xrotation Yrotation Zrotation
		JOINT RightUpLeg
		{
			OFFSET -11.333700 -6.187798 -0.413800
			CHANNELS 3 Xrotation Yrotation Zrotation
			JOINT RightLeg
			{
				OFFSET -0.430392 -32.302628 3.733000
				CHANNELS 3 Xrotation Yrotation Zrotation
				JOINT RightFoot
				{
					OFFSET 0.430392 -48.264973 -6.423500
					CHANNELS 3 Xrotation Yrotation Zrotation
					JOINT RightToeBase
					{
						OFFSET -4.230900 -16.068199 23.438400
						CHANNELS 3 Xrotation Yrotation Zrotation
						JOINT RightToe_End
						{
							OFFSET -4.510700 0.695400 19.974600
							CHANNELS 3 Xrotation Yrotation Zrotation
							End Site
							{
								OFFSET 0 0 0
							}
						}
					}
				}
			}
		}
	}
	JOINT Spine_virtual
	{
		OFFSET 0.000000 0.000000 0.000000
		CHANNELS 3 Xrotation Yrotation Zrotation
		JOINT Spine
		{
			OFFSET -0.002400 12.777504 0.315300
			CHANNELS 3 Xrotation Yrotation Zrotation
			JOINT Spine1
			{
				OFFSET -0.002067 5.816869 0.032633
				CHANNELS 3 Xrotation Yrotation Zrotation
				JOINT Spine1_split
				{
					OFFSET -0.002067 5.816869 0.032633
					CHANNELS 3 Xrotation Yrotation Zrotation
					JOINT Spine2
					{
						OFFSET -0.002067 5.816869 0.032633
						CHANNELS 3 Xrotation Yrotation Zrotation
						JOINT Neck_virtual
						{
							OFFSET 0.000000 0.000000 0.000000
							CHANNELS 3 Xrotation Yrotation Zrotation
							JOINT Neck
							{
								OFFSET -0.003700 21.199493 -0.826900
								CHANNELS 3 Xrotation Yrotation Zrotation
								JOINT Head
								{
									OFFSET 0.000000 20.442200 4.834800
									CHANNELS 3 Xrotation Yrotation Zrotation
									JOINT HeadTop_End
									{
										OFFSET 0.000000 34.668396 4.968400
										CHANNELS 3 Xrotation Yrotation Zrotation
										End Site
										{
											OFFSET 0 0 0
										}
									}
								}
							}
						}
						JOINT LeftShoulder_virtual
						{
							OFFSET 0.000000 0.000000 0.000000
							CHANNELS 3 Xrotation Yrotation Zrotation
							JOINT LeftShoulder
							{
								OFFSET 3.288150 8.794197 -1.372250
								CHANNELS 3 Xrotation Yrotation Zrotation
								JOINT LeftShoulder_split
								{
									OFFSET 3.288150 8.794197 -1.372250
									CHANNELS 3 Xrotation Yrotation Zrotation
									JOINT LeftArm
									{
										OFFSET 11.953299 -2.279007 -0.146200
										CHANNELS 3 Xrotation Yrotation Zrotation
										JOINT LeftForeArm
										{
											OFFSET 18.448900 0.000000 0.000000
											CHANNELS 3 Xrotation Yrotation Zrotation
											JOINT LeftHand
											{
												OFFSET 29.527798 0.000000 0.000000
												CHANNELS 3 Xrotation Yrotation Zrotation
												End Site
												{
													OFFSET 0 0 0
												}
											}
										}
									}
								}
							}
						}
						JOINT RightShoulder_virtual
						{
							OFFSET 0.000000 0.000000 0.000000
							CHANNELS 3 Xrotation Yrotation Zrotation
							JOINT RightShoulder
							{
								OFFSET -3.249400 8.794197 -1.372250
								CHANNELS 3 Xrotation Yrotation Zrotation
								JOINT RightShoulder_split
								{
									OFFSET -3.249400 8.794197 -1.372250
									CHANNELS 3 Xrotation Yrotation Zrotation
									JOINT RightArm
									{
										OFFSET -11.953299 -2.279007 -0.146200
										CHANNELS 3 Xrotation Yrotation Zrotation
										JOINT RightForeArm
										{
											OFFSET -18.448900 0.000000 0.000000
											CHANNELS 3 Xrotation Yrotation Zrotation
											JOINT RightHand
											{
												OFFSET -29.527802 0.000000 0.000000
												CHANNELS 3 Xrotation Yrotation Zrotation
												End Site
												{
													OFFSET 0 0 0
												}
											}
										}
									}
								}
							}
						}
					}
				}
			}
		}
	}
}
MOTION
Frames: 11
Frame Time: 0.03333333
-0.651547 98.453842 0.312012 0.000000 0.000000 0.000000 -7.066649 6.896481 -0.195427 -26.639761 11.025039 14.466479 31.171324 3.424939 6.083730 1.483246 -12.780175 -7.581747 -2.133656 0.618683 -1.674334 0.000000 0.000000 0.000000 -7.301529 8.697008 -0.057759 -0.698607 -9.598971 2.214808 18.225243 -9.971800 -6.929868 -7.906244 -16.264033 5.676139 -7.397112 -0.333326 -0.772014 0.000000 0.000000 0.000000 -6.817468 6.943347 -0.452304 2.716637 0.501361 3.666760 2.253454 0.536300 2.832599 0.814500 -1.230747 -0.173462 0.000000 0.000000 0.000000 1.659886 0.770536 2.840586 12.338857 -0.777547 -1.341001 3.354540 -10.555246 -7.590761 0.000000 0.000000 0.000000 1.333889 0.787127 2.700061 2.140203 -14.727018 -11.934286 -0.463848 0.134383 -2.461441 4.334907 -3.387929 -70.093184 -1.746859 -1.306296 -0.241958 0.000000 0.000000 0.000000 1.336958 0.524719 2.882495 1.946526 8.872409 18.855451 0.924582 3.882919 -2.026449 24.988505 7.013787 59.093048 0.773375 7.063304 0.583233 0.000000 0.000000 0.000000 
-0.565841 98.686562 0.378536 0.000000 0.000000 0.000000 -6.690028 6.232036 -0.259139 -26.276750 11.404810 14.412799 30.580878 3.066660 5.958435 1.374653 -11.833590 -7.593896 -2.040264 0.593866 -1.692692 0.000000 0.000000 0.000000 -6.942405 7.936258 -0.140564 -1.343038 -9.619130 2.002674 18.038391 -9.886654 -6.933023 -7.501995 -15.500564 5.693412 -7.381747 -0.264685 -0.735608 0.000000 0.000000 0.000000 -6.345397 6.414828 -0.500408 2.626119 0.374079 3.673509 2.330154 0.402675 2.819835 0.840786 -1.236990 -0.180645 0.000000 0.000000 0.000000 1.775867 0.598424 2.825965 12.140064 -0.539448 -1.226333 2.511553 -9.413076 -7.006013 0.000000 0.000000 0.000000 1.357512 0.612999 2.651909 2.148623 -14.920758 -12.225576 -0.519785 0.288458 -2.252183 4.691958 -2.329096 -70.307659 -1.666114 -1.070864 -0.138439 0.000000 0.000000 0.000000 1.439265 0.359300 2.892036 2.011768 8.208875 18.642409 0.616143 3.772713 -2.145498 27.015398 7.085855 58.241166 0.770654 6.904733 0.501060 0.000000 0.000000 0.000000 
-0.489815 98.924141 0.425850 0.000000 0.000000 0.000000 -6.315549 5.317034 -0.393635 -25.782791 11.752245 14.417455 29.997938 2.764522 5.784751 1.082724 -10.621903 -7.628023 -1.924899 0.568215 -1.730553 0.000000 0.000000 0.000000 -6.573213 6.979109 -0.288750 -2.088868 -9.683271 1.782627 17.858754 -9.793093 -6.887402 -7.083287 -14.495570 5.657910 -7.308630 -0.196251 -0.660372 0.000000 0.000000 0.000000 -5.880477 5.651355 -0.619287 2.574593 0.275324 3.684023 2.429310 0.294008 2.824090 0.876139 -1.093103 -0.170137 0.000000 0.000000 0.000000 1.884644 0.443212 2.836895 11.874883 -0.287304 -1.096181 1.682441 -8.174948 -6.417475 0.000000 0.000000 0.000000 1.386020 0.463494 2.612717 2.160425 -15.065584 -12.454952 -0.660838 0.519177 -2.064659 5.045522 -1.491722 -70.606869 -1.613867 -0.826599 -0.077676 0.000000 0.000000 0.000000 1.543011 0.222701 2.913544 2.046124 7.815554 18.491173 0.282414 3.600149 -2.157044 27.612068 6.479134 57.692989 0.658781 6.285291 0.508410 0.000000 0.000000 0.000000 
-0.432891 99.152939 0.442570 0.000000 0.000000 0.000000 -5.945349 4.246906 -0.586730 -25.213746 12.026536 14.457456 29.443965 2.494447 5.587949 0.631789 -9.214621 -7.684251 -1.820266 0.542817 -1.787267 0.000000 0.000000 0.000000 -6.198665 5.906477 -0.491090 -2.890642 -9.788444 1.573051 17.664628 -9.725746 -6.796952 -6.645425 -13.308968 5.554931 -7.194523 -0.142604 -0.553376 0.000000 0.000000 0.000000 -5.445067 4.690637 -0.804902 2.552387 0.206268 3.693601 2.548000 0.209959 2.839754 0.888772 -0.885077 -0.146853 0.000000 0.000000 0.000000 1.985407 0.318898 2.865500 11.527605 -0.028349 -0.944853 0.866648 -6.864490 -5.826342 0.000000 0.000000 0.000000 1.425081 0.345692 2.584658 2.183672 -15.157954 -12.581707 -0.853221 0.692684 -1.894335 5.456050 -1.044501 -70.933072 -1.592284 -0.669055 -0.075127 0.000000 0.000000 0.000000 1.630479 0.125504 2.944469 2.043615 7.689033 18.442757 0.092873 3.402037 -2.123995 26.838313 5.478322 57.433667 0.523989 5.430076 0.569477 0.000000 0.000000 0.000000 
-0.390556 99.375618 0.434734 0.000000 0.000000 0.000000 -5.585202 3.098551 -0.815199 -24.616333 12.229284 14.518351 28.909144 2.210448 5.390108 0.120493 -7.731462 -7.792252 -1.761065 0.518617 -1.835644 0.000000 0.000000 0.000000 -5.832734 4.742528 -0.726779 -3.723499 -9.923094 1.378309 17.433733 -9.693638 -6.668015 -6.174977 -12.011762 5.417814 -7.095983 -0.115390 -0.432875 0.000000 0.000000 0.000000 -5.064431 3.594775 -1.035784 2.550910 0.160087 3.695896 2.679870 0.142485 2.856275 0.883411 -0.708147 -0.143840 0.000000 0.000000 0.000000 2.079604 0.229281 2.896282 11.134171 0.223222 -0.763092 0.088114 -5.531701 -5.230007 0.000000 0.000000 0.000000 1.482299 0.260704 2.567259 2.227800 -15.188051 -12.592361 -1.074151 0.737691 -1.764679 5.922898 -1.035186 -71.238443 -1.612608 -0.677001 -0.122909 0.000000 0.000000 0.000000 1.709565 0.062677 2.967475 2.003076 7.737834 18.447409 0.141055 3.251732 -2.072920 25.108576 4.546510 57.294287 0.410518 4.794851 0.641344 0.000000 0.000000 0.000000 
-0.360019 99.594101 0.399624 0.000000 0.000000 0.000000 -5.236515 1.940628 -1.048444 -24.043374 12.363471 14.586871 28.399853 1.887152 5.197466 -0.320474 -6.274972 -7.962063 -1.729935 0.491172 -1.868797 0.000000 0.000000 0.000000 -5.486545 3.547697 -0.972255 -4.532800 -10.075742 1.188634 17.146217 -9.702440 -6.511694 -5.647390 -10.657512 5.272265 -7.029661 -0.113474 -0.318165 0.000000 0.000000 0.000000 -4.740866 2.436377 -1.277156 2.558832 0.127210 3.689456 2.814120 0.079781 2.864151 0.836887 -0.634636 -0.130667 0.000000 0.000000 0.000000 2.169288 0.167353 2.911865 10.742505 0.464490 -0.562010 -0.640976 -4.215219 -4.620868 0.000000 0.000000 0.000000 1.563411 0.199518 2.555295 2.289621 -15.176438 -12.500133 -1.299342 0.683754 -1.687539 6.389174 -1.411780 -71.487280 -1.658844 -0.824080 -0.197430 0.000000 0.000000 0.000000 1.782121 0.024565 2.970051 1.936455 7.915283 18.444424 0.429148 3.216862 -2.072792 22.944257 4.234666 57.110589 0.359716 4.726178 0.677829 0.000000 0.000000 0.000000 
-0.334860 99.815948 0.354488 0.000000 0.000000 0.000000 -4.906696 0.831214 -1.267329 -23.528771 12.459959 14.646465 27.890593 1.538270 5.018183 -0.612474 -4.904960 -8.163619 -1.680206 0.461787 -1.890147 0.000000 0.000000 0.000000 -5.165388 2.379821 -1.204918 -5.280411 -10.214317 1.004456 16.801108 -9.747442 -6.341548 -5.087932 -9.304593 5.107151 -6.937761 -0.128952 -0.227451 0.000000 0.000000 0.000000 -4.469656 1.287933 -1.508331 2.566051 0.097321 3.673280 2.934518 0.016050 2.858976 0.816981 -0.680235 -0.136812 0.000000 0.000000 0.000000 2.257210 0.124718 2.901824 10.395842 0.691645 -0.350501 -1.302421 -2.957387 -3.999477 0.000000 0.000000 0.000000 1.662619 0.148540 2.539417 2.359299 -15.159982 -12.349014 -1.478878 0.577427 -1.636776 6.777232 -2.092840 -71.659483 -1.717235 -1.051139 -0.271890 0.000000 0.000000 0.000000 1.858786 -0.002294 2.956118 1.862374 8.181946 18.387223 0.762474 3.187424 -2.076574 20.758707 4.913632 56.840971 0.387181 5.207629 0.665589 0.000000 0.000000 0.000000 
-0.310259 100.042984 0.309940 0.000000 0.000000 0.000000 -4.596906 -0.197969 -1.466643 -23.070335 12.562917 14.687862 27.331448 1.215399 4.853236 -0.773292 -3.646004 -8.344746 -1.553283 0.432362 -1.916782 0.000000 0.000000 0.000000 -4.870693 1.270119 -1.419225 -5.951068 -10.317974 0.822803 16.381703 -9.822761 -6.167814 -4.492799 -7.998373 4.927404 -6.799848 -0.149163 -0.170571 0.000000 0.000000 0.000000 -4.235355 0.198043 -1.712013 2.568268 0.071103 3.652516 3.038490 -0.047173 2.842625 0.859155 -0.762574 -0.135978 0.000000 0.000000 0.000000 2.333588 0.091679 2.867110 10.116204 0.896387 -0.146803 -1.896525 -1.788434 -3.381188 0.000000 0.000000 0.000000 1.775177 0.101394 2.517902 2.426004 -15.157093 -12.201849 -1.624842 0.480968 -1.638125 7.010872 -2.994911 -71.749969 -1.771793 -1.214931 -0.321134 0.000000 0.000000 0.000000 1.948539 -0.025190 2.927044 1.794737 8.515177 18.249021 1.017253 3.183094 -2.056295 18.849673 6.517550 56.566206 0.438267 6.122042 0.600591 0.000000 0.000000 0.000000 
-0.281947 100.271820 0.262623 0.000000 0.000000 0.000000 -4.309930 -1.117940 -1.646899 -22.660624 12.702042 14.700478 26.688674 0.969954 4.700847 -0.847600 -2.512420 -8.466592 -1.374950 0.407685 -1.960533 0.000000 0.000000 0.000000 -4.597231 0.277482 -1.615402 -6.519979 -10.367222 0.653793 15.911959 -9.915121 -6.002506 -3.843964 -6.782164 4.744177 -6.668683 -0.166812 -0.150068 0.000000 0.000000 0.000000 -4.011045 -0.799276 -1.885779 2.564440 0.054811 3.635363 3.115111 -0.104566 2.819904 0.913738 -0.810594 -0.120194 0.000000 0.000000 0.000000 2.387493 0.061368 2.816687 9.893897 1.075723 0.030392 -2.436044 -0.741690 -2.774507 0.000000 0.000000 0.000000 1.879124 0.054777 2.491044 2.470213 -15.195591 -12.113336 -1.746672 0.422412 -1.646679 7.033158 -4.101556 -71.749170 -1.798888 -1.208478 -0.332419 0.000000 0.000000 0.000000 2.038204 -0.044521 2.891858 1.739369 8.958862 18.049999 1.034850 3.117938 -1.994582 17.247730 8.846959 56.343166 0.482526 7.139498 0.496659 0.000000 0.000000 0.000000 
-0.241331 100.492516 0.209782 0.000000 0.000000 0.000000 -4.049562 -1.935665 -1.816326 -22.306252 12.869144 14.687256 25.992445 0.819496 4.570463 -0.850137 -1.528417 -8.524966 -1.216438 0.389939 -2.010354 0.000000 0.000000 0.000000 -4.339232 -0.599469 -1.797907 -7.007290 -10.360325 0.498751 15.417057 -10.010129 -5.849475 -3.101266 -5.680641 4.580327 -6.614497 -0.179193 -0.157857 0.000000 0.000000 0.000000 -3.783684 -1.685126 -2.035874 2.553792 0.054832 3.623408 3.166639 -0.145890 2.793719 0.950208 -0.789429 -0.120436 0.000000 0.000000 0.000000 2.419094 0.038273 2.764644 9.706752 1.220311 0.174655 -2.924149 0.147177 -2.190932 0.000000 0.000000 0.000000 1.961582 0.016970 2.461897 2.482566 -15.274248 -12.119394 -1.872129 0.409781 -1.636765 6.821343 -5.455433 -71.645153 -1.803717 -1.032138 -0.308968 0.000000 0.000000 0.000000 2.115554 -0.057199 2.856408 1.695311 9.511656 17.808752 0.834941 3.028888 -1.875324 15.811972 11.582271 56.257044 0.466037 8.094111 0.396107 0.000000 0.000000 0.000000 
-0.184640 100.700539 0.140495 0.000000 0.000000 0.000000 -3.818518 -2.648724 -1.973211 -22.010170 13.037828 14.649146 25.314255 0.763653 4.464747 -0.779852 -0.725224 -8.516148 -1.093203 0.377463 -2.062484 0.000000 0.000000 0.000000 -4.095649 -1.364414 -1.972661 -7.407337 -10.314692 0.367581 14.885600 -10.093485 -5.716589 -2.270068 -4.704749 4.452042 -6.642769 -0.187237 -0.169372 0.000000 0.000000 0.000000 -3.545084 -2.443793 -2.167964 2.539629 0.080491 3.618107 3.198786 -0.165669 2.762999 0.934125 -0.698669 -0.108916 0.000000 0.000000 0.000000 2.427630 0.023900 2.716160 9.526873 1.328490 0.283507 -3.375175 0.856275 -1.630374 0.000000 0.000000 0.000000 2.014705 -0.005655 2.435861 2.455051 -15.370115 -12.230179 -2.029469 0.408862 -1.633015 6.403090 -7.085675 -71.437659 -1.787207 -0.765434 -0.263299 0.000000 0.000000 0.000000 2.169318 -0.061549 2.813787 1.661826 10.167187 17.537257 0.574737 2.986192 -1.730265 14.461904 14.477964 56.285953 0.386535 8.933251 0.320005 0.000000 0.000000 0.000000 
